<svg width="142" height="30" viewBox="0 0 142 30" fill="none" xmlns="http://www.w3.org/2000/svg">
<path d="M5.97266 1.67188L7.99414 9.68457L10.2939 1.67188H15.4062V23H11.627V16.6865L11.8027 6.71094L9.00488 15.9688H6.96875L4.46387 7.10645L4.63965 16.6865V23H0.860352V1.67188H5.97266ZM20.167 7.15039H28.7949V19.6895H33.0869V23H20.167V19.6895H24.6787V10.4756H20.167V7.15039ZM24.3857 3.09277C24.3857 2.78027 24.4395 2.49219 24.5469 2.22852C24.6641 1.95508 24.8252 1.7207 25.0303 1.52539C25.2354 1.33984 25.4795 1.19336 25.7627 1.08594C26.0557 0.978516 26.3779 0.924805 26.7295 0.924805C27.4521 0.924805 28.0234 1.12988 28.4434 1.54004C28.873 1.94043 29.0879 2.45801 29.0879 3.09277C29.0879 3.72754 28.873 4.25 28.4434 4.66016C28.0234 5.06055 27.4521 5.26074 26.7295 5.26074C26.3779 5.26074 26.0557 5.20703 25.7627 5.09961C25.4795 4.99219 25.2354 4.84082 25.0303 4.64551C24.8252 4.45996 24.6641 4.23535 24.5469 3.97168C24.4395 3.69824 24.3857 3.40527 24.3857 3.09277ZM37.1006 23V7.15039H40.792L41.041 9.34766C41.2461 9.05469 41.4707 8.78613 41.7148 8.54199C41.959 8.29785 42.2178 8.07812 42.4912 7.88281C42.96 7.55078 43.4727 7.29688 44.0293 7.12109C44.5859 6.94531 45.1768 6.85742 45.8018 6.85742C46.6025 6.85742 47.335 6.97461 47.999 7.20898C48.6631 7.44336 49.2393 7.81445 49.7275 8.32227C50.2061 8.83984 50.5771 9.50391 50.8408 10.3145C51.1143 11.1152 51.251 12.0918 51.251 13.2441V23H47.1787V13.3027C47.1787 12.6777 47.1055 12.165 46.959 11.7646C46.8223 11.3545 46.6221 11.0322 46.3584 10.7979C46.0947 10.5635 45.7773 10.4023 45.4062 10.3145C45.0352 10.2168 44.6152 10.168 44.1465 10.168C43.7559 10.168 43.3945 10.2119 43.0625 10.2998C42.7402 10.3877 42.4521 10.5195 42.1982 10.6953C41.9932 10.8223 41.8076 10.9736 41.6416 11.1494C41.4756 11.3252 41.3242 11.5205 41.1875 11.7354V23H37.1006ZM62.8086 23.293C61.5879 23.293 60.4795 23.0928 59.4834 22.6924C58.4873 22.292 57.6328 21.7451 56.9199 21.0518C56.207 20.3682 55.6553 19.5625 55.2646 18.6348C54.8838 17.6973 54.6934 16.6963 54.6934 15.6318V15.0459C54.6934 13.835 54.8838 12.7314 55.2646 11.7354C55.6455 10.7295 56.1777 9.86523 56.8613 9.14258C57.5449 8.41992 58.3555 7.8584 59.293 7.45801C60.2305 7.05762 61.251 6.85742 62.3545 6.85742C63.4971 6.85742 64.5127 7.04785 65.4014 7.42871C66.2998 7.7998 67.0615 8.32715 67.6865 9.01074C68.3018 9.69434 68.7705 10.5195 69.0928 11.4863C69.415 12.4434 69.5762 13.5029 69.5762 14.665V16.3936H58.8242V16.4375C58.9609 17.0723 59.1367 17.585 59.3516 17.9756C59.5664 18.3564 59.8545 18.7031 60.2158 19.0156C60.5869 19.3379 61.0117 19.5869 61.4902 19.7627C61.9688 19.9385 62.4912 20.0264 63.0576 20.0264C63.8584 20.0264 64.6348 19.875 65.3867 19.5723C66.1387 19.2695 66.749 18.8154 67.2178 18.21L69.2539 20.4072C68.7363 21.1396 67.916 21.8037 66.793 22.3994C65.6699 22.9951 64.3418 23.293 62.8086 23.293ZM62.3252 10.1533C61.8662 10.1533 61.4463 10.2363 61.0654 10.4023C60.6846 10.5586 60.3525 10.7881 60.0693 11.0908C59.7764 11.3936 59.5322 11.7549 59.3369 12.1748C59.1416 12.5947 58.9951 13.0635 58.8975 13.5811H65.5771V13.2588C65.5771 12.8291 65.499 12.4238 65.3428 12.043C65.1865 11.6621 64.9717 11.3301 64.6982 11.0469C64.4248 10.7734 64.0879 10.5586 63.6875 10.4023C63.2969 10.2363 62.8428 10.1533 62.3252 10.1533ZM77.3984 19.6748H87.3887V23H73.2676V1.67188H77.3984V19.6748ZM90.5967 14.9287C90.5967 13.7764 90.7627 12.7119 91.0947 11.7354C91.4268 10.749 91.915 9.89453 92.5596 9.17188C93.1943 8.44922 93.9707 7.88281 94.8887 7.47266C95.8164 7.0625 96.876 6.85742 98.0674 6.85742C99.2588 6.85742 100.318 7.0625 101.246 7.47266C102.174 7.88281 102.96 8.44922 103.604 9.17188C104.239 9.89453 104.723 10.749 105.055 11.7354C105.387 12.7119 105.553 13.7764 105.553 14.9287V15.2363C105.553 16.3984 105.387 17.4727 105.055 18.459C104.723 19.4355 104.239 20.2852 103.604 21.0078C102.97 21.7305 102.188 22.2969 101.261 22.707C100.333 23.1074 99.2783 23.3076 98.0967 23.3076C96.9053 23.3076 95.8408 23.1074 94.9033 22.707C93.9756 22.2969 93.1943 21.7305 92.5596 21.0078C91.915 20.2852 91.4268 19.4355 91.0947 18.459C90.7627 17.4727 90.5967 16.3984 90.5967 15.2363V14.9287ZM94.6689 15.2363C94.6689 15.9004 94.7324 16.5254 94.8594 17.1113C94.9863 17.6875 95.1865 18.1904 95.46 18.6201C95.7334 19.0596 96.085 19.4062 96.5146 19.6602C96.9541 19.9141 97.4814 20.041 98.0967 20.041C98.6924 20.041 99.2051 19.9141 99.6348 19.6602C100.064 19.4062 100.416 19.0596 100.689 18.6201C100.953 18.1904 101.148 17.6875 101.275 17.1113C101.402 16.5254 101.466 15.9004 101.466 15.2363V14.9287C101.466 14.2842 101.402 13.6738 101.275 13.0977C101.148 12.5215 100.953 12.0137 100.689 11.5742C100.416 11.1348 100.064 10.7881 99.6348 10.5342C99.2051 10.2803 98.6826 10.1533 98.0674 10.1533C97.4619 10.1533 96.9443 10.2803 96.5146 10.5342C96.085 10.7881 95.7334 11.1348 95.46 11.5742C95.1865 12.0137 94.9863 12.5215 94.8594 13.0977C94.7324 13.6738 94.6689 14.2842 94.6689 14.9287V15.2363ZM108.761 14.958C108.761 13.7568 108.907 12.6582 109.2 11.6621C109.503 10.666 109.933 9.81152 110.489 9.09863C111.046 8.38574 111.72 7.83398 112.511 7.44336C113.302 7.05273 114.195 6.85742 115.191 6.85742C115.729 6.85742 116.217 6.91113 116.656 7.01855C117.105 7.11621 117.511 7.26758 117.872 7.47266C118.146 7.61914 118.399 7.79492 118.634 8C118.868 8.19531 119.083 8.41504 119.278 8.65918L119.439 7.15039H123.146V22.4873C123.146 23.5615 122.96 24.5186 122.589 25.3584C122.228 26.1982 121.72 26.9062 121.065 27.4824C120.401 28.0586 119.605 28.4932 118.678 28.7861C117.76 29.0889 116.744 29.2402 115.631 29.2402C115.152 29.2402 114.64 29.1914 114.093 29.0938C113.546 28.9961 113.004 28.8447 112.467 28.6396C111.93 28.4346 111.422 28.1709 110.943 27.8486C110.465 27.5361 110.055 27.1602 109.713 26.7207L111.544 24.2451C111.808 24.5479 112.091 24.8115 112.394 25.0361C112.696 25.2705 113.014 25.4609 113.346 25.6074C113.668 25.7539 114 25.8613 114.342 25.9297C114.693 26.0078 115.055 26.0469 115.426 26.0469C116.021 26.0469 116.549 25.9639 117.008 25.7979C117.477 25.6318 117.867 25.3877 118.18 25.0654C118.463 24.7725 118.678 24.4111 118.824 23.9814C118.98 23.5518 119.059 23.0684 119.059 22.5312V21.623C118.863 21.8379 118.658 22.0332 118.443 22.209C118.229 22.3848 117.999 22.541 117.755 22.6777C117.394 22.873 116.993 23.0244 116.554 23.1318C116.124 23.2393 115.66 23.293 115.162 23.293C114.176 23.293 113.287 23.0928 112.496 22.6924C111.715 22.2822 111.046 21.7207 110.489 21.0078C109.933 20.2949 109.503 19.4502 109.2 18.4736C108.907 17.4873 108.761 16.418 108.761 15.2656V14.958ZM112.848 15.2656C112.848 15.9297 112.911 16.5498 113.038 17.126C113.175 17.6924 113.38 18.1855 113.653 18.6055C113.927 19.0352 114.273 19.3721 114.693 19.6162C115.113 19.8604 115.611 19.9824 116.188 19.9824C116.539 19.9824 116.856 19.9482 117.14 19.8799C117.433 19.8115 117.696 19.7139 117.931 19.5869C118.175 19.4502 118.39 19.2842 118.575 19.0889C118.761 18.8936 118.922 18.6738 119.059 18.4297V11.7207C118.912 11.4473 118.736 11.208 118.531 11.0029C118.326 10.7979 118.092 10.6318 117.828 10.5049C117.604 10.3975 117.354 10.3145 117.081 10.2559C116.817 10.1973 116.529 10.168 116.217 10.168C115.641 10.168 115.143 10.2949 114.723 10.5488C114.303 10.793 113.956 11.1299 113.683 11.5596C113.399 11.999 113.189 12.5117 113.053 13.0977C112.916 13.6738 112.848 14.2939 112.848 14.958V15.2656ZM126.632 14.9287C126.632 13.7764 126.798 12.7119 127.13 11.7354C127.462 10.749 127.95 9.89453 128.595 9.17188C129.229 8.44922 130.006 7.88281 130.924 7.47266C131.852 7.0625 132.911 6.85742 134.103 6.85742C135.294 6.85742 136.354 7.0625 137.281 7.47266C138.209 7.88281 138.995 8.44922 139.64 9.17188C140.274 9.89453 140.758 10.749 141.09 11.7354C141.422 12.7119 141.588 13.7764 141.588 14.9287V15.2363C141.588 16.3984 141.422 17.4727 141.09 18.459C140.758 19.4355 140.274 20.2852 139.64 21.0078C139.005 21.7305 138.224 22.2969 137.296 22.707C136.368 23.1074 135.313 23.3076 134.132 23.3076C132.94 23.3076 131.876 23.1074 130.938 22.707C130.011 22.2969 129.229 21.7305 128.595 21.0078C127.95 20.2852 127.462 19.4355 127.13 18.459C126.798 17.4727 126.632 16.3984 126.632 15.2363V14.9287ZM130.704 15.2363C130.704 15.9004 130.768 16.5254 130.895 17.1113C131.021 17.6875 131.222 18.1904 131.495 18.6201C131.769 19.0596 132.12 19.4062 132.55 19.6602C132.989 19.9141 133.517 20.041 134.132 20.041C134.728 20.041 135.24 19.9141 135.67 19.6602C136.1 19.4062 136.451 19.0596 136.725 18.6201C136.988 18.1904 137.184 17.6875 137.311 17.1113C137.438 16.5254 137.501 15.9004 137.501 15.2363V14.9287C137.501 14.2842 137.438 13.6738 137.311 13.0977C137.184 12.5215 136.988 12.0137 136.725 11.5742C136.451 11.1348 136.1 10.7881 135.67 10.5342C135.24 10.2803 134.718 10.1533 134.103 10.1533C133.497 10.1533 132.979 10.2803 132.55 10.5342C132.12 10.7881 131.769 11.1348 131.495 11.5742C131.222 12.0137 131.021 12.5215 130.895 13.0977C130.768 13.6738 130.704 14.2842 130.704 14.9287V15.2363Z" fill="#DE232C"/>
</svg>
